<svg width="4" height="17" viewBox="0 0 4 17" fill="none" xmlns="http://www.w3.org/2000/svg">
<path d="M3.12 14.87C3.12 15.32 2.99 15.69 2.73 15.98C2.46 16.26 2.13 16.4 1.74 16.4C1.34 16.4 1.005 16.26 0.735 15.98C0.465 15.69 0.33 15.32 0.33 14.87C0.33 14.43 0.465 14.07 0.735 13.79C1.005 13.5 1.34 13.355 1.74 13.355C2.13 13.355 2.46 13.5 2.73 13.79C2.99 14.07 3.12 14.43 3.12 14.87ZM3.12 8.2366C3.12 8.6866 2.99 9.0566 2.73 9.3466C2.46 9.6266 2.13 9.7666 1.74 9.7666C1.34 9.7666 1.005 9.6266 0.735 9.3466C0.465 9.0566 0.33 8.6866 0.33 8.2366C0.33 7.7966 0.465 7.4366 0.735 7.1566C1.005 6.8666 1.34 6.7216 1.74 6.7216C2.13 6.7216 2.46 6.8666 2.73 7.1566C2.99 7.4366 3.12 7.7966 3.12 8.2366ZM3.12 1.6032C3.12 2.0532 2.99 2.4232 2.73 2.7132C2.46 2.9932 2.13 3.1332 1.74 3.1332C1.34 3.1332 1.005 2.9932 0.735 2.7132C0.465 2.4232 0.33 2.0532 0.33 1.6032C0.33 1.1632 0.465 0.803203 0.735 0.523203C1.005 0.233203 1.34 0.0882027 1.74 0.0882027C2.13 0.0882027 2.46 0.233203 2.73 0.523203C2.99 0.803203 3.12 1.1632 3.12 1.6032Z" fill="#1A120B"/>
</svg>
