<svg width="44" height="44" viewBox="0 0 44 44" fill="none" xmlns="http://www.w3.org/2000/svg">
<circle cx="22" cy="22" r="22" fill="#F2F2F2"/>
<path d="M36.8078 19.5162C36.6285 19.8164 36.5185 20.1526 36.4858 20.5003C36.4243 20.9276 36.3216 21.348 36.1793 21.7558C35.9659 22.3334 35.5962 22.841 35.1109 23.2225C34.5368 21.7155 33.7024 20.32 32.6455 19.0989C33.2332 18.8791 33.8695 18.8208 34.4876 18.9303C34.9254 19.0106 35.3543 19.1334 35.7682 19.2969C36.095 19.4423 36.4491 19.5172 36.8071 19.5169L36.8078 19.5162Z" fill="#333333"/>
<path d="M30.3783 13.2873C30.3762 13.6369 30.4517 13.9827 30.5994 14.3C30.7679 14.6984 30.8948 15.1129 30.9781 15.5371C31.0903 16.1387 31.0301 16.7596 30.8042 17.3287C29.5311 16.2986 28.0915 15.491 26.5469 14.9402C26.9469 14.4624 27.4708 14.103 28.0618 13.9011C28.4838 13.7593 28.9189 13.6598 29.3608 13.6041C29.7158 13.569 30.0597 13.4614 30.371 13.288L30.3783 13.2873Z" fill="#333333"/>
<path d="M35.7925 25.6476C36.4066 25.7378 36.9849 25.9912 37.4665 26.3809C37.8112 26.6696 38.1245 26.9933 38.4016 27.3467C38.6016 27.6289 38.8598 27.8655 39.159 28.0405H35.9907C35.995 27.2386 35.9287 26.4379 35.7925 25.6476Z" fill="#333333"/>
<path d="M12.7852 13.2873C13.0977 13.4614 13.4432 13.5687 13.7998 13.6026C14.2417 13.6583 14.6769 13.758 15.0988 13.9003C15.69 14.1018 16.2141 14.4613 16.6137 14.9395C15.068 15.4885 13.6273 16.2952 12.3534 17.325C12.1252 16.7565 12.0646 16.135 12.1787 15.5335C12.2621 15.109 12.389 14.6942 12.5575 14.2956C12.7083 13.9803 12.7873 13.6357 12.7888 13.2865L12.7852 13.2873Z" fill="#333333"/>
<path d="M6.35205 19.5162C6.71009 19.5168 7.0642 19.4418 7.39097 19.2962C7.80462 19.1329 8.23326 19.0101 8.67083 18.9295C9.28892 18.8201 9.92522 18.8784 10.5129 19.0982C9.45789 20.3194 8.6253 21.7147 8.05263 23.221C7.56761 22.8395 7.19809 22.3319 6.98498 21.7543C6.8413 21.346 6.73742 20.9248 6.67478 20.4967C6.64144 20.1491 6.5315 19.813 6.35279 19.5125L6.35205 19.5162Z" fill="#333333"/>
<path d="M4 28.0405C4.30786 27.8673 4.57512 27.6308 4.78398 27.3467C5.05635 27.0029 5.3635 26.6879 5.70058 26.4066C6.18195 26.0168 6.76002 25.7635 7.3739 25.6733C7.2363 26.4598 7.16752 27.2568 7.16833 28.0551L4 28.0405Z" fill="#333333"/>
<path d="M21.5789 11C21.7597 11.3025 22.0037 11.5629 22.2943 11.7634C22.6546 12.0227 22.986 12.3194 23.2832 12.6485C23.6875 13.1184 23.9504 13.6924 24.0414 14.3044C22.4116 14.0353 20.7484 14.0353 19.1187 14.3044C19.2177 13.6972 19.486 13.1298 19.8931 12.6669C20.1842 12.3388 20.5092 12.0422 20.8627 11.7817C21.1555 11.5759 21.3999 11.3092 21.5789 11Z" fill="#333333"/>
<path d="M18.65 28.0647H19.7369C19.8805 27.1766 19.6005 26.4902 18.6729 26.6515C17.8889 26.7909 17.0519 27.544 16.5405 28.0647H17.9714C18.1306 27.9657 18.4452 27.8483 18.5734 27.9363C18.5957 27.95 18.6143 27.9687 18.6276 27.9911C18.641 28.0135 18.6487 28.0387 18.65 28.0647Z" fill="#1A120B"/>
<path d="M23.5611 28.061H24.9169C25.0137 26.4897 24.6906 24.921 23.9804 23.5143C23.6674 22.8944 23.2084 22.359 22.6426 21.9538C22.0769 21.5485 21.421 21.2853 20.731 21.1867C18.6134 20.8853 16.4818 21.7521 14.6714 22.9966C12.7092 24.3489 11.0853 26.1873 9.68018 28.0566H11.4714C13.0843 25.8566 16.7964 22.4759 19.5263 22.4539C20.3948 22.4064 21.251 22.6751 21.935 23.21C22.408 23.6214 22.9842 24.4141 22.954 25.0433C22.954 25.4283 22.5753 25.5464 22.2496 25.41C21.9911 25.2851 21.7742 25.0888 21.6248 24.8446C21.3373 24.4573 20.949 24.1555 20.5018 23.9717C20.0546 23.788 19.5655 23.7292 19.0872 23.8018C17.8758 23.9639 16.372 24.8739 15.4031 25.7041C14.5729 26.4219 13.796 27.1986 13.0784 28.028H14.9838C15.6667 27.1979 16.4816 26.4847 17.3962 25.9167C17.733 25.7106 18.0909 25.5407 18.4638 25.41C19.4563 25.08 20.4407 25.1643 20.8799 26.3633C21.0517 26.8913 21.1021 27.4509 21.0272 28.0009V28.0317H22.3373V27.995C22.3373 27.5799 22.3373 27.3005 22.3645 26.895C22.3992 26.5283 22.5119 26.1617 22.8531 26.1309C23.5729 25.9842 23.5346 27.5374 23.5501 28.0375L23.5611 28.061Z" fill="#1A120B"/>
<path d="M26.3442 28.061H27.7117C27.8005 26.4959 27.6173 24.9272 27.1701 23.4241C27.0757 23.1336 26.966 22.8482 26.8415 22.5691C26.5508 21.9285 26.1681 21.3334 25.7053 20.8025C25.1786 20.1923 24.5608 19.6662 23.8736 19.2427C23.6651 19.1173 23.4529 19.0036 23.2333 18.898C23.0122 18.7947 22.7859 18.7027 22.5554 18.6223C19.9029 17.7049 17.1965 18.3575 14.936 19.5477C14.4939 19.7824 14.0709 20.0334 13.6672 20.3009C13.2619 20.5685 12.8795 20.8443 12.531 21.1266C11.9971 21.5423 11.491 21.9923 11.0161 22.4737C10.91 22.5801 10.8076 22.6937 10.7096 22.8008C10.4406 23.0941 10.0243 23.5092 10.1488 23.9389C10.2432 24.277 10.6978 24.1773 10.8532 24.0599C11.1098 23.9132 11.351 23.7412 11.5731 23.5466C11.8796 23.2929 12.1714 23.0215 12.4779 22.7641C13.6159 21.792 14.8921 20.9928 16.2652 20.3925C16.5415 20.2752 16.8178 20.1725 17.0904 20.0728C17.3631 19.9731 17.6394 19.9005 17.9083 19.8308C20.2661 19.2397 22.8317 19.6255 24.4564 21.483C26.0362 23.2745 26.3235 25.6755 26.3501 28.0588L26.3442 28.061ZM9.37076 26.0333C9.53537 25.8794 9.68716 25.7123 9.82464 25.5339C9.91929 25.4399 9.98413 25.3203 10.0111 25.1899C10.0381 25.0596 10.026 24.9242 9.97642 24.8006C9.94513 24.7319 9.89821 24.6714 9.83938 24.6239C9.78113 24.5789 9.71414 24.5464 9.64264 24.5285C9.53481 24.5102 9.42398 24.5225 9.32285 24.564C9.22172 24.6055 9.13439 24.6746 9.07087 24.7632C8.81184 25.0609 8.63107 25.418 8.54478 25.8023C8.5352 25.867 8.5352 25.9327 8.54478 25.9974C8.55057 26.0578 8.56862 26.1164 8.59783 26.1697C8.61915 26.211 8.6518 26.2453 8.69197 26.2688C8.73215 26.2923 8.7782 26.304 8.82477 26.3025H8.97214C9.12494 26.247 9.26161 26.1548 9.37002 26.0341L9.37076 26.0333Z" fill="#1A120B"/>
<path d="M29.7528 28.061C29.8599 28.0632 29.9657 28.0373 30.0595 27.9858C30.1533 27.9343 30.2318 27.859 30.287 27.7677C30.3173 27.7167 30.342 27.6626 30.3607 27.6063C30.3804 27.5379 30.3933 27.4676 30.399 27.3966C30.508 23.7255 29.3424 20.6668 27.3692 18.5856C26.9868 18.1849 26.5713 17.8169 26.1269 17.4856C25.6835 17.1602 25.2126 16.8736 24.7196 16.6291C22.7071 15.6802 20.4458 15.3849 18.2554 15.785C17.8996 15.851 17.5466 15.9317 17.1981 16.0307C15.2759 16.6073 13.5265 17.6474 12.1052 19.0586C11.8245 19.338 11.5555 19.624 11.3021 19.9254C11.1768 20.0757 11.056 20.2261 10.9233 20.3808C11.9196 19.5422 13.0033 18.8123 14.1558 18.2035C14.4129 18.0715 14.6664 17.9469 14.9125 17.8369C15.1586 17.7269 15.4283 17.6125 15.6928 17.5135C16.65 17.145 17.6502 16.8986 18.6695 16.7801C19.6631 16.6728 20.6666 16.6975 21.6537 16.8535C22.3512 16.9594 23.0346 17.1429 23.691 17.4005C23.8162 17.4482 23.9334 17.5032 24.0697 17.5597C24.1883 17.6096 24.3035 17.6671 24.4145 17.732C26.625 18.9053 28.1635 21.3195 28.8413 24.0387C29.1157 25.1112 29.2507 26.2143 29.2429 27.3211V27.3504C29.2367 27.4743 29.2602 27.5979 29.3114 27.711C29.3627 27.8241 29.4402 27.9235 29.5376 28.0009C29.5717 28.0215 29.6084 28.0375 29.6467 28.0485C29.6882 28.0544 29.7304 28.0544 29.772 28.0485L29.7528 28.061Z" fill="#1A120B"/>
<path d="M25.749 15.7879C31.2133 17.5406 34.9114 22.4818 34.9357 28.061H32.3038C32.4777 23.0641 30.2282 18.5519 25.7461 15.7879H25.749Z" fill="#333333"/>
<path d="M10.3611 32.0547H9.29934L9.03851 32.9538H8.19043L9.3244 29.5071H10.3972L11.5312 32.9538H10.647L10.3611 32.0547ZM9.4165 31.4739H10.2322C10.0207 30.7985 9.8807 30.3395 9.81659 30.0865L9.65081 30.7465L9.42976 31.4798L9.4165 31.4739ZM14.2604 32.0547H13.1986L12.9378 32.9538H12.0875L13.2214 29.5071H14.2943L15.4282 32.9538H14.5514L14.2604 32.0547ZM13.3194 31.4739H14.1358C13.9199 30.7985 13.7844 30.3395 13.7203 30.0865L13.5537 30.7465L13.3327 31.4798L13.3194 31.4739ZM16.2446 32.9406V29.5577C16.6202 29.504 16.9992 29.478 17.3786 29.48C17.9587 29.4268 18.5378 29.5904 19.0033 29.9391C19.1686 30.0945 19.2987 30.2834 19.3847 30.4929C19.4707 30.7025 19.5108 30.928 19.5021 31.1542C19.5165 31.4081 19.4733 31.6619 19.3759 31.897C19.2785 32.1321 19.1292 32.3424 18.9392 32.5123C18.4345 32.874 17.8161 33.0434 17.1966 32.9897C16.8785 32.9917 16.5606 32.9745 16.2446 32.9384V32.9406ZM17.061 30.1209V32.3642C17.1591 32.373 17.2577 32.373 17.3557 32.3642C17.6972 32.3863 18.0338 32.2754 18.2945 32.0547C18.409 31.938 18.4976 31.7987 18.5545 31.6457C18.6114 31.4927 18.6352 31.3295 18.6245 31.1667C18.6354 31.0178 18.6141 30.8684 18.562 30.7285C18.5099 30.5886 18.4282 30.4614 18.3225 30.3556C18.0774 30.156 17.7654 30.0561 17.4493 30.0762C17.3228 30.0739 17.1963 30.085 17.0721 30.1092L17.061 30.1209ZM20.3634 29.5115H21.1739V30.8367H22.568V29.5101H23.3844V32.9567H22.568V31.5231H21.1762V32.9538H20.3657L20.3634 29.5115ZM26.3413 32.0562H25.2795L25.015 32.9553H24.1677L25.3009 29.5086H26.3744L27.5268 32.9553H26.6426L26.3516 32.0562H26.3413ZM25.4004 31.4761H26.2167C26.0009 30.8 25.8609 30.3417 25.8012 30.0879L25.631 30.7479L25.4099 31.4813L25.4004 31.4761ZM30.2442 32.0562H29.1832L28.9187 32.9553H28.0706L29.2046 29.5086H30.2774L31.4298 32.9553H30.5456L30.2589 32.0562H30.2442ZM29.304 31.4761H30.1145C29.9031 30.8 29.7631 30.3417 29.699 30.0879L29.5288 30.7479L29.3077 31.4813L29.304 31.4761ZM32.2248 32.9428V29.5577C32.5889 29.501 32.9571 29.475 33.3256 29.48C33.7297 29.4473 34.1342 29.537 34.4861 29.7374C34.6007 29.8215 34.6926 29.9324 34.7538 30.0603C34.815 30.1882 34.8435 30.3292 34.8368 30.4707C34.8379 30.6583 34.7753 30.8407 34.6592 30.9885C34.5433 31.142 34.3824 31.256 34.1987 31.3148C34.3244 31.3745 34.4336 31.4635 34.5172 31.5744C34.6007 31.6852 34.656 31.8146 34.6784 31.9513C34.8606 32.5678 34.9589 32.8946 34.9731 32.9318H34.1405C34.028 32.6747 33.9431 32.4065 33.8871 32.1317C33.8624 31.9727 33.7932 31.8237 33.6874 31.702C33.5741 31.6094 33.4289 31.5647 33.2829 31.5773H33.0309V32.9538L32.2248 32.9428ZM33.0309 30.0791V31.0266H33.3676C33.5423 31.0414 33.7168 30.9961 33.862 30.8983C33.9193 30.8563 33.9651 30.8008 33.9955 30.7368C34.0258 30.6728 34.0397 30.6023 34.0359 30.5316C34.0422 30.4622 34.031 30.3923 34.0033 30.3283C33.9757 30.2643 33.9324 30.2081 33.8775 30.1649C33.7456 30.0752 33.5875 30.0314 33.428 30.0403C33.3015 30.0373 33.1749 30.0461 33.05 30.0667L33.0309 30.0791Z" fill="#1A120B"/>
</svg>
