<svg width="52" height="52" viewBox="0 0 52 52" fill="none" xmlns="http://www.w3.org/2000/svg">
<g filter="url(#filter0_d_111_338)">
<circle cx="26" cy="22" r="22" fill="#F2F2F2"/>
<path d="M25.4109 20.4087C27.7329 20.4087 29.6153 18.5264 29.6153 16.2044C29.6153 13.8824 27.7329 12 25.4109 12C23.0889 12 21.2065 13.8824 21.2065 16.2044C21.2065 18.5264 23.0889 20.4087 25.4109 20.4087Z" fill="#1A120B"/>
<path d="M23.1592 28.095H27.715V29.0062H23.1592V28.095Z" fill="#1A120B"/>
<path d="M23.1723 29.3967V31.3492C23.1723 31.5218 23.2408 31.6873 23.3629 31.8094C23.4849 31.9314 23.6505 32 23.8231 32H34.8872C35.0598 32 35.2254 31.9314 35.3474 31.8094C35.4695 31.6873 35.538 31.5218 35.538 31.3492V24.8409C35.538 24.6683 35.4695 24.5027 35.3474 24.3807C35.2254 24.2586 35.0598 24.19 34.8872 24.19H30.3314V23.2333C30.3314 23.0607 30.2628 22.8952 30.1408 22.7731C30.0187 22.6511 29.8532 22.5825 29.6806 22.5825C29.508 22.5825 29.3424 22.6511 29.2204 22.7731C29.0983 22.8952 29.0297 23.0607 29.0297 23.2333V24.19H27.7281V21.8601C26.6221 21.6794 25.5034 21.588 24.3828 21.5867C21.9115 21.5762 19.4678 22.1071 17.2237 23.1422C16.8543 23.3165 16.5427 23.5931 16.3258 23.9392C16.109 24.2853 15.9959 24.6863 16.0001 25.0947V29.3967H23.1723ZM34.2364 30.6983H24.4739V25.4917H29.0297V25.765C29.0297 25.9377 29.0983 26.1032 29.2204 26.2253C29.3424 26.3473 29.508 26.4159 29.6806 26.4159C29.8532 26.4159 30.0187 26.3473 30.1408 26.2253C30.2628 26.1032 30.3314 25.9377 30.3314 25.765V25.4917H34.2364V30.6983Z" fill="#1A120B"/>
</g>
<defs>
<filter id="filter0_d_111_338" x="0" y="0" width="52" height="52" filterUnits="userSpaceOnUse" color-interpolation-filters="sRGB">
<feFlood flood-opacity="0" result="BackgroundImageFix"/>
<feColorMatrix in="SourceAlpha" type="matrix" values="0 0 0 0 0 0 0 0 0 0 0 0 0 0 0 0 0 0 127 0" result="hardAlpha"/>
<feOffset dy="4"/>
<feGaussianBlur stdDeviation="2"/>
<feComposite in2="hardAlpha" operator="out"/>
<feColorMatrix type="matrix" values="0 0 0 0 0 0 0 0 0 0 0 0 0 0 0 0 0 0 0.25 0"/>
<feBlend mode="normal" in2="BackgroundImageFix" result="effect1_dropShadow_111_338"/>
<feBlend mode="normal" in="SourceGraphic" in2="effect1_dropShadow_111_338" result="shape"/>
</filter>
</defs>
</svg>
