<svg width="44" height="44" viewBox="0 0 44 44" fill="none" xmlns="http://www.w3.org/2000/svg">
<circle cx="22" cy="22" r="22" fill="#F2F2F2"/>
<path d="M17.0723 11.5125L18.3499 11.1282C19.0498 10.9172 19.8025 10.968 20.4677 11.2711C21.1329 11.5743 21.6651 12.1092 21.9649 12.7759L22.9524 14.972C23.2102 15.5454 23.2819 16.1852 23.1577 16.8015C23.0334 17.4179 22.7193 17.9798 22.2594 18.4085L20.6227 19.9336C20.5749 19.9781 20.5446 20.0383 20.5373 20.1033C20.4891 20.5379 20.7836 21.3842 21.4635 22.561C21.9561 23.4161 22.4039 24.0171 22.7838 24.3532C23.0498 24.5886 23.1954 24.639 23.2578 24.6214L25.4583 23.9481C26.0593 23.7643 26.7027 23.7732 27.2983 23.9734C27.894 24.1737 28.4121 24.5553 28.7799 25.0648L30.1812 27.0092C30.6079 27.6003 30.8055 28.3262 30.7374 29.052C30.6694 29.7778 30.3403 30.4543 29.8112 30.9559L28.8401 31.8755C28.3253 32.363 27.693 32.7089 27.0048 32.8794C26.3167 33.05 25.596 33.0394 24.9131 32.8487C21.8981 32.0069 19.1951 29.4626 16.7734 25.2685C14.3495 21.0689 13.4978 17.4517 14.2839 14.4158C14.4603 13.7331 14.8097 13.1072 15.2983 12.5987C15.7869 12.0902 16.3971 11.7161 17.0723 11.5125ZM17.5474 13.0857C17.1422 13.2075 16.7753 13.4317 16.4819 13.7366C16.1885 14.0415 15.9786 14.4168 15.8724 14.8264C15.2133 17.3794 15.9676 20.5861 18.1966 24.4474C20.4234 28.3032 22.8199 30.5595 25.3565 31.2679C25.7663 31.3822 26.1987 31.3884 26.6115 31.2859C27.0244 31.1835 27.4037 30.9758 27.7125 30.6833L28.6825 29.7636C28.9231 29.5357 29.0729 29.2282 29.1039 28.8981C29.1349 28.5681 29.0451 28.2381 28.8511 27.9693L27.4498 26.026C27.2825 25.7942 27.0469 25.6205 26.7759 25.5294C26.505 25.4383 26.2123 25.4343 25.9389 25.5181L23.733 26.1935C22.4521 26.5745 21.2905 25.5443 20.0424 23.3821C19.1995 21.9261 18.8075 20.7984 18.906 19.9215C18.9564 19.4661 19.1688 19.0457 19.5027 18.7326L21.1394 17.2075C21.3484 17.0126 21.491 16.7571 21.5474 16.4769C21.6037 16.1967 21.5709 15.9059 21.4536 15.6453L20.4672 13.4491C20.3309 13.1461 20.089 12.903 19.7866 12.7652C19.4842 12.6274 19.1421 12.6043 18.8239 12.7003L17.5474 13.0857Z" fill="#1A120B"/>
</svg>
