<svg width="44" height="44" viewBox="0 0 44 44" fill="none" xmlns="http://www.w3.org/2000/svg">
<circle cx="22" cy="22" r="22" fill="#F2F2F2"/>
<path d="M13 15.25C13 14.6533 13.2371 14.081 13.659 13.659C14.081 13.2371 14.6533 13 15.25 13H24.75C25.3467 13 25.919 13.2371 26.341 13.659C26.7629 14.081 27 14.6533 27 15.25V24H31V27.75C31 28.612 30.6576 29.4386 30.0481 30.0481C29.4386 30.6576 28.612 31 27.75 31H16.25C15.388 31 14.5614 30.6576 13.9519 30.0481C13.3424 29.4386 13 28.612 13 27.75V15.25ZM27 29.5H27.75C28.2141 29.5 28.6592 29.3156 28.9874 28.9874C29.3156 28.6592 29.5 28.2141 29.5 27.75V25.5H27V29.5ZM15.25 14.5C15.0511 14.5 14.8603 14.579 14.7197 14.7197C14.579 14.8603 14.5 15.0511 14.5 15.25V27.75C14.5 28.716 15.284 29.5 16.25 29.5H25.5V15.25C25.5 15.0511 25.421 14.8603 25.2803 14.7197C25.1397 14.579 24.9489 14.5 24.75 14.5H15.25ZM17.25 17C17.0511 17 16.8603 17.079 16.7197 17.2197C16.579 17.3603 16.5 17.5511 16.5 17.75C16.5 17.9489 16.579 18.1397 16.7197 18.2803C16.8603 18.421 17.0511 18.5 17.25 18.5H22.75C22.9489 18.5 23.1397 18.421 23.2803 18.2803C23.421 18.1397 23.5 17.9489 23.5 17.75C23.5 17.5511 23.421 17.3603 23.2803 17.2197C23.1397 17.079 22.9489 17 22.75 17H17.25ZM16.5 21.75C16.5 21.5511 16.579 21.3603 16.7197 21.2197C16.8603 21.079 17.0511 21 17.25 21H22.75C22.9489 21 23.1397 21.079 23.2803 21.2197C23.421 21.3603 23.5 21.5511 23.5 21.75C23.5 21.9489 23.421 22.1397 23.2803 22.2803C23.1397 22.421 22.9489 22.5 22.75 22.5H17.25C17.0511 22.5 16.8603 22.421 16.7197 22.2803C16.579 22.1397 16.5 21.9489 16.5 21.75ZM17.25 25C17.0511 25 16.8603 25.079 16.7197 25.2197C16.579 25.3603 16.5 25.5511 16.5 25.75C16.5 25.9489 16.579 26.1397 16.7197 26.2803C16.8603 26.421 17.0511 26.5 17.25 26.5H20.25C20.4489 26.5 20.6397 26.421 20.7803 26.2803C20.921 26.1397 21 25.9489 21 25.75C21 25.5511 20.921 25.3603 20.7803 25.2197C20.6397 25.079 20.4489 25 20.25 25H17.25Z" fill="#1A120B"/>
</svg>
