<svg width="44" height="44" viewBox="0 0 44 44" fill="none" xmlns="http://www.w3.org/2000/svg">
<circle cx="22" cy="22" r="22" fill="#F2F2F2"/>
<path d="M15.75 18.125C15.75 17.4288 16.0266 16.7611 16.5188 16.2688C17.0111 15.7766 17.6788 15.5 18.375 15.5C19.0712 15.5 19.7389 15.7766 20.2312 16.2688C20.7234 16.7611 21 17.4288 21 18.125C21 18.8212 20.7234 19.4889 20.2312 19.9812C19.7389 20.4734 19.0712 20.75 18.375 20.75C17.6788 20.75 17.0111 20.4734 16.5188 19.9812C16.0266 19.4889 15.75 18.8212 15.75 18.125ZM18.375 14C17.281 14 16.2318 14.4346 15.4582 15.2082C14.6846 15.9818 14.25 17.031 14.25 18.125C14.25 19.219 14.6846 20.2682 15.4582 21.0418C16.2318 21.8154 17.281 22.25 18.375 22.25C19.469 22.25 20.5182 21.8154 21.2918 21.0418C22.0654 20.2682 22.5 19.219 22.5 18.125C22.5 17.031 22.0654 15.9818 21.2918 15.2082C20.5182 14.4346 19.469 14 18.375 14ZM26.25 19.25C26.25 18.8522 26.408 18.4706 26.6893 18.1893C26.9706 17.908 27.3522 17.75 27.75 17.75C28.1478 17.75 28.5294 17.908 28.8107 18.1893C29.092 18.4706 29.25 18.8522 29.25 19.25C29.25 19.6478 29.092 20.0294 28.8107 20.3107C28.5294 20.592 28.1478 20.75 27.75 20.75C27.3522 20.75 26.9706 20.592 26.6893 20.3107C26.408 20.0294 26.25 19.6478 26.25 19.25ZM27.75 16.25C26.9544 16.25 26.1913 16.5661 25.6287 17.1287C25.0661 17.6913 24.75 18.4544 24.75 19.25C24.75 20.0456 25.0661 20.8087 25.6287 21.3713C26.1913 21.9339 26.9544 22.25 27.75 22.25C28.5456 22.25 29.3087 21.9339 29.8713 21.3713C30.4339 20.8087 30.75 20.0456 30.75 19.25C30.75 18.4544 30.4339 17.6913 29.8713 17.1287C29.3087 16.5661 28.5456 16.25 27.75 16.25ZM12 26C12 25.4033 12.2371 24.831 12.659 24.409C13.081 23.9871 13.6533 23.75 14.25 23.75H22.5C23.0967 23.75 23.669 23.9871 24.091 24.409C24.5129 24.831 24.75 25.4033 24.75 26V26.1695C24.7485 26.2395 24.7435 26.3093 24.735 26.3787C24.72 26.5085 24.6923 26.6847 24.6375 26.8932C24.4934 27.4433 24.2385 27.9581 23.8883 28.406C23.0107 29.5325 21.36 30.5 18.375 30.5C15.39 30.5 13.74 29.5325 12.8617 28.406C12.5113 27.9581 12.2561 27.4433 12.1117 26.8932C12.0545 26.6726 12.0178 26.4472 12.0023 26.2197C12.0015 26.203 12.001 26.1863 12.0007 26.1695V26.1522L12 26.1462V26.1403V26ZM13.5 26.1335V26.1425C13.5104 26.2686 13.5317 26.3936 13.5638 26.516C13.6313 26.777 13.7685 27.1295 14.0445 27.4843C14.5732 28.1623 15.735 29 18.375 29C21.015 29 22.1775 28.1622 22.7055 27.485C22.9297 27.198 23.0931 26.8683 23.1855 26.516C23.2178 26.3936 23.2393 26.2686 23.25 26.1425L23.2507 26.1335V26C23.2507 25.8011 23.1717 25.6103 23.0311 25.4697C22.8904 25.329 22.6997 25.25 22.5007 25.25H14.25C14.0511 25.25 13.8603 25.329 13.7197 25.4697C13.579 25.6103 13.5 25.8011 13.5 26V26.1335ZM25.1077 28.619C25.8052 28.856 26.673 29 27.75 29C30.1507 29 31.515 28.2852 32.2598 27.4062C32.622 26.9788 32.8073 26.5453 32.901 26.2123C32.9515 26.0337 32.9839 25.8505 32.9977 25.6655L32.9985 25.6385L32.9993 25.622V25.5935C32.9993 25.3514 32.9518 25.1117 32.8592 24.8881C32.7666 24.6644 32.6309 24.4612 32.4598 24.29C32.2887 24.1188 32.0855 23.983 31.8619 23.8903C31.6382 23.7977 31.3986 23.75 31.1565 23.75H25.0148C25.3898 24.1693 25.662 24.6823 25.791 25.25H31.1565C31.344 25.25 31.4955 25.3992 31.5 25.5845C31.4926 25.6591 31.4786 25.7329 31.458 25.805C31.4115 25.97 31.3155 26.201 31.1152 26.4373C30.735 26.8865 29.8493 27.5 27.75 27.5C26.8763 27.5 26.2132 27.3935 25.7092 27.2375C25.5758 27.7244 25.3733 28.1896 25.1077 28.619Z" fill="#1A120B"/>
</svg>
