<svg width="44" height="44" viewBox="0 0 44 44" fill="none" xmlns="http://www.w3.org/2000/svg">
<circle cx="22" cy="22" r="22" fill="#F2F2F2"/>
<path d="M17.1111 12H28.2222L27.1111 14.2222H23.4889C24.0222 14.8667 24.4222 15.6222 24.6556 16.4444H28.2222L27.1111 18.6667H24.8889C24.7512 20.0519 24.1495 21.3501 23.1814 22.3504C22.2133 23.3508 20.9356 23.9947 19.5556 24.1778V24.2222H18.7778L25.4444 32H22.6667L16 24.2222V22H18.7778C20.7333 22 22.3556 20.5556 22.6222 18.6667H16L17.1111 16.4444H22.2889C21.6667 15.1333 20.3333 14.2222 18.7778 14.2222H16L17.1111 12Z" fill="#1A120B"/>
</svg>
