<svg width="25" height="24" viewBox="0 0 25 24" fill="none" xmlns="http://www.w3.org/2000/svg">
<path d="M17.7822 9.00195C19.9572 9.01395 21.1352 9.11095 21.9032 9.87895C22.7822 10.758 22.7822 12.172 22.7822 15V16C22.7822 18.829 22.7822 20.243 21.9032 21.122C21.0252 22 19.6102 22 16.7822 22H8.78223C5.95423 22 4.53923 22 3.66123 21.122C2.78223 20.242 2.78223 18.829 2.78223 16V15C2.78223 12.172 2.78223 10.758 3.66123 9.87895C4.42923 9.11095 5.60723 9.01395 7.78223 9.00195" stroke="#1A120B" stroke-width="1.5" stroke-linecap="round"/>
<path d="M12.7822 15V2M12.7822 2L15.7822 5.5M12.7822 2L9.78223 5.5" stroke="#1A120B" stroke-width="1.5" stroke-linecap="round" stroke-linejoin="round"/>
</svg>
